<?xml version="1.0" standalone="no"?>
<!DOCTYPE svg PUBLIC "-//W3C//DTD SVG 20010904//EN"
 "http://www.w3.org/TR/2001/REC-SVG-20010904/DTD/svg10.dtd">
<svg version="1.0" xmlns="http://www.w3.org/2000/svg"
 width="224.000000pt" height="225.000000pt" viewBox="0 0 224.000000 225.000000"
 preserveAspectRatio="xMidYMid meet">

<g transform="translate(0.000000,225.000000) scale(0.100000,-0.100000)"
fill="#000000" stroke="none">
<path d="M935 1876 c-183 -36 -355 -146 -457 -294 -160 -232 -169 -550 -22
-780 43 -66 113 -152 126 -152 4 0 8 15 8 33 0 24 -12 49 -45 92 -91 117 -135
245 -135 399 0 181 62 329 194 462 64 64 99 90 166 123 174 85 363 94 537 25
56 -23 64 -23 95 -11 l33 14 -52 26 c-123 63 -312 89 -448 63z"/>
<path d="M1607 1802 c-97 -29 -117 -38 -111 -51 4 -9 9 -35 12 -59 5 -53 -16
-88 -65 -108 -61 -26 -137 16 -149 83 -7 37 -8 37 -53 22 -26 -9 -31 -15 -25
-33 27 -89 107 -216 186 -293 47 -46 153 -123 169 -123 3 0 29 45 58 100 l53
101 -31 35 c-45 51 -43 104 4 151 34 34 38 35 88 30 l52 -5 32 59 32 59 -25 0
c-35 0 -81 26 -89 50 -8 24 5 26 -138 -18z"/>
<path d="M1047 1603 c-42 -13 -77 -28 -77 -32 0 -5 22 -11 50 -15 27 -4 51
-10 54 -14 3 -5 -10 -16 -27 -25 -28 -15 -87 -91 -87 -111 0 -4 28 8 63 27 34
19 68 32 75 30 19 -7 14 -42 -12 -87 -13 -23 -31 -64 -39 -93 -20 -66 -31 -86
-74 -134 l-35 -39 59 0 c88 0 226 52 286 108 20 19 30 23 38 15 20 -20 -1 -64
-57 -119 -50 -49 -53 -54 -30 -54 61 0 136 51 168 114 l15 29 18 -27 c13 -20
16 -38 12 -71 -4 -25 -4 -45 -2 -45 6 0 65 91 65 100 0 4 -22 21 -50 39 -122
79 -226 201 -294 342 l-42 87 -77 -25z"/>
<path d="M1707 1418 c-17 -31 -17 -38 -3 -98 34 -142 12 -309 -57 -446 -29
-57 -34 -76 -28 -108 l6 -39 26 39 c43 64 75 134 100 214 34 107 33 292 -2
398 l-24 73 -18 -33z"/>
<path d="M1545 885 c-5 -2 -35 -6 -65 -10 l-55 -6 0 -90 0 -89 45 5 c107 14
110 15 110 39 0 21 -3 22 -55 18 -37 -3 -55 -1 -55 7 0 6 13 11 29 11 16 0 37
8 47 18 17 16 16 17 -29 20 -64 4 -59 18 8 27 50 6 55 9 55 31 0 22 -10 28
-35 19z"/>
<path d="M1272 849 c-22 -7 -36 -19 -43 -37 -6 -15 -15 -35 -20 -44 -5 -10 -5
-19 1 -23 6 -3 10 -14 10 -24 0 -47 83 -60 126 -20 24 23 33 59 14 59 -6 0
-23 -9 -38 -20 -17 -13 -35 -18 -45 -14 -21 8 -23 57 -2 74 14 12 55 5 55 -10
0 -4 9 -6 20 -3 27 7 25 38 -2 57 -25 18 -29 18 -76 5z"/>
<path d="M1070 820 c0 -6 -7 -27 -17 -48 -9 -20 -15 -40 -14 -45 0 -4 -6 -24
-14 -43 -8 -20 -15 -38 -15 -41 0 -9 45 10 53 23 9 16 53 19 62 4 3 -5 17 -10
30 -10 23 0 24 1 9 35 -8 19 -13 38 -13 42 1 5 -6 27 -16 51 -14 32 -23 42
-42 42 -12 0 -23 -5 -23 -10z m40 -102 c0 -5 -7 -8 -15 -8 -15 0 -20 21 -8 33
7 7 23 -11 23 -25z"/>
<path d="M855 802 c-18 -6 -20 -16 -20 -95 0 -82 1 -88 20 -85 13 2 21 12 23
29 3 22 9 28 42 33 48 7 70 29 70 66 0 53 -8 60 -64 59 -28 -1 -60 -4 -71 -7z
m93 -54 c-7 -20 -68 -23 -68 -4 0 12 10 16 36 16 24 0 34 -4 32 -12z"/>
<path d="M670 777 c-32 -11 -35 -15 -35 -52 l0 -40 48 -3 c65 -4 57 -26 -11
-30 -48 -3 -52 -5 -52 -28 0 -20 5 -24 33 -24 85 0 135 35 123 86 -6 21 -12
24 -56 24 -49 0 -66 12 -34 24 9 3 33 6 55 6 35 0 39 3 39 25 0 22 -4 25 -37
24 -21 0 -54 -5 -73 -12z"/>
<path d="M1460 647 c-28 -17 -35 -29 -37 -55 -1 -39 7 -34 22 11 9 29 15 33
63 41 28 5 52 13 52 17 0 18 -66 8 -100 -14z"/>
<path d="M1472 565 c-7 -25 -16 -45 -22 -45 -5 0 -7 -6 -4 -14 3 -7 -2 -30
-10 -50 -13 -31 -13 -36 0 -36 8 0 22 9 31 20 18 20 73 28 73 10 0 -5 11 -10
25 -10 24 0 24 0 10 40 -8 22 -14 41 -14 43 0 1 -4 15 -10 30 -6 16 -11 35
-11 43 0 9 -10 14 -28 14 -25 0 -29 -5 -40 -45z m48 -61 c0 -8 -7 -14 -15 -14
-17 0 -18 2 -9 24 7 18 24 12 24 -10z"/>
<path d="M1370 594 c-8 -1 -41 -6 -72 -9 -53 -6 -58 -9 -58 -31 0 -23 3 -24
40 -18 51 8 51 -4 1 -49 -21 -19 -40 -46 -43 -61 l-5 -26 66 6 c66 7 81 15 81
44 0 12 -9 15 -42 12 l-43 -4 41 43 c23 24 44 56 46 72 3 15 5 26 4 26 0 -1
-8 -3 -16 -5z"/>
<path d="M725 575 c-32 -10 -36 -13 -20 -18 11 -4 43 -3 70 1 50 8 50 8 20 18
-21 7 -42 7 -70 -1z"/>
<path d="M1088 563 c-33 -4 -38 -8 -38 -30 0 -24 2 -25 43 -19 l42 7 -47 -48
c-54 -55 -64 -93 -24 -93 13 0 44 3 70 6 41 6 46 10 46 32 0 23 -2 24 -42 18
l-43 -7 42 43 c23 24 45 55 48 71 8 30 4 30 -97 20z"/>
<path d="M942 541 c-9 -5 -13 -33 -13 -91 0 -45 2 -84 4 -86 1 -2 12 -1 24 2
23 6 31 53 25 139 -4 44 -14 53 -40 36z"/>
<path d="M754 523 c-30 -4 -32 -7 -31 -41 1 -20 0 -41 -2 -47 -2 -5 -3 -29 -2
-52 1 -39 3 -43 26 -43 21 0 25 5 25 30 0 27 3 30 30 30 58 0 96 61 70 111
-11 19 -37 22 -116 12z m81 -58 c0 -5 -15 -11 -32 -13 -25 -3 -33 1 -33 13 0
12 8 16 33 13 17 -2 32 -7 32 -13z"/>
<path d="M1208 483 c7 -3 16 -2 19 1 4 3 -2 6 -13 5 -11 0 -14 -3 -6 -6z"/>
</g>
</svg>
